<svg height="512" viewBox="0 0 64 64" width="512" xmlns="http://www.w3.org/2000/svg"><g id="flat"><rect fill="#ad6327" height="32" rx="9" width="58" x="3" y="16"/><circle cx="26" cy="25" fill="#66342e" r="5"/><circle cx="23" cy="25" fill="#e97424" r="2"/><circle cx="28" cy="27" fill="#fcf05a" r="2"/><circle cx="26" cy="39" fill="#66342e" r="5"/><circle cx="26" cy="40" fill="#f4f4e6" r="2"/><circle cx="38" cy="39" fill="#66342e" r="5"/><circle cx="38" cy="42" fill="#87cee9" r="2"/><circle cx="38" cy="36" fill="#fcf05a" r="2"/><g fill="#66342e"><rect height="24" rx="5" width="10" x="7" y="20"/><rect height="24" rx="5" width="10" x="47" y="20"/><circle cx="38" cy="25" r="5"/></g><circle cx="36" cy="23" fill="#87cee9" r="2"/><circle cx="11" cy="27" fill="#c8d952" r="2"/><circle cx="13" cy="33" fill="#f4f4e6" r="2"/><circle cx="41" cy="12" fill="#87cee9" r="2"/><circle cx="35" cy="10" fill="#e1462b" r="2"/><circle cx="25" cy="54" fill="#87cee9" r="2"/><circle cx="42" cy="52" fill="#fcf05a" r="2"/><circle cx="19" cy="52" fill="#c8d952" r="2"/><circle cx="53" cy="37" fill="#e97424" r="2"/></g></svg>