<?xml version="1.0" encoding="UTF-8" standalone="no"?>
<!-- Created with Inkscape (http://www.inkscape.org/) -->

<svg
   xmlns:dc="http://purl.org/dc/elements/1.1/"
   xmlns:cc="http://creativecommons.org/ns#"
   xmlns:rdf="http://www.w3.org/1999/02/22-rdf-syntax-ns#"
   xmlns:svg="http://www.w3.org/2000/svg"
   xmlns="http://www.w3.org/2000/svg"
   xmlns:sodipodi="http://sodipodi.sourceforge.net/DTD/sodipodi-0.dtd"
   xmlns:inkscape="http://www.inkscape.org/namespaces/inkscape"
   width="25.502052mm"
   height="32.793709mm"
   viewBox="0 0 25.502052 32.793708"
   version="1.1"
   id="svg1595"
   inkscape:version="0.91 r13725"
   sodipodi:docname="1544345677_Seed.svg"
   inkscape:export-filename="/home/att/w/ja/f/magocska.svg.png"
   inkscape:export-xdpi="89.584442"
   inkscape:export-ydpi="89.584442">
  <defs
     id="defs1589" />
  <sodipodi:namedview
     id="base"
     pagecolor="#ffffff"
     bordercolor="#666666"
     borderopacity="1.0"
     inkscape:pageopacity="0.0"
     inkscape:pageshadow="2"
     inkscape:zoom="5.7487991"
     inkscape:cx="45.180801"
     inkscape:cy="58.09909"
     inkscape:document-units="mm"
     inkscape:current-layer="layer1"
     showgrid="false"
     inkscape:window-width="1600"
     inkscape:window-height="837"
     inkscape:window-x="-8"
     inkscape:window-y="-8"
     inkscape:window-maximized="1"
     fit-margin-top="2"
     fit-margin-left="2"
     fit-margin-right="2"
     fit-margin-bottom="2" />
  <metadata
     id="metadata1592">
    <rdf:RDF>
      <cc:Work
         rdf:about="">
        <dc:format>image/svg+xml</dc:format>
        <dc:type
           rdf:resource="http://purl.org/dc/dcmitype/StillImage" />
        <dc:title />
      </cc:Work>
    </rdf:RDF>
  </metadata>
  <g
     inkscape:label="1. réteg"
     inkscape:groupmode="layer"
     id="layer1"
     transform="translate(-69.741596,-157.30598)">
    <g
       id="g26653">
      <path
         sodipodi:nodetypes="cccc"
         inkscape:connector-curvature="0"
         id="path1599"
         d="m 72.057662,176.44355 c 0,0 -3.815885,13.86773 12.774192,11.17742 0,0 9.359968,-1.79008 7.93678,-9.93768 -10.778226,-40.31855 -20.710972,-1.23974 -20.710972,-1.23974 z"
         style="fill:#c8ab37;stroke:#000000;stroke-width:0.26458332px;stroke-linecap:butt;stroke-linejoin:miter;stroke-opacity:1" />
      <path
         sodipodi:nodetypes="ccccccccccccccccccc"
         inkscape:connector-curvature="0"
         id="path26512"
         d="m 81.201884,161.07199 c -0.971467,0.60607 -5.0355,6.82636 -4.448401,6.5595 0.846466,-0.75554 1.712073,-1.59721 2.337295,-1.35714 -0.642367,1.58823 -0.229213,3.04452 0,4.5238 -0.208994,-0.33145 1.479106,-4.7541 2.035709,-4.67459 l 1.432536,2.11111 -0.376983,-2.48809 c 2.704334,2.58457 1.357139,0.45523 1.357139,-1.88492 0.758463,0.28653 1.232541,0.90485 1.30522,1.99146 0.290612,-0.42979 0.581849,-0.85864 0.202713,-2.29305 3.566706,8.679 6.953688,15.48572 1.130949,22.5436 7.089422,-3.53799 4.926857,-10.53837 3.468245,-14.85314 -1.252254,-4.92395 -2.462176,-7.72255 -4.900781,-10.48013 l -0.731843,1.99146 c -0.584459,0.46843 -0.377518,-0.97731 -0.549899,-1.53908 -0.378336,0.16214 -1.628139,3.27203 -1.281743,2.78967 -0.375146,0.22297 -0.296825,-2.23252 -0.150793,-2.48808 -0.376749,0.77793 -0.786354,1.72013 -1.055553,1.96031 -0.248531,-0.4803 -0.320054,-1.13761 0.22619,-2.41269 z"
         style="fill:#decd87;fill-rule:evenodd;stroke:none;stroke-width:0.28222221px;stroke-linecap:butt;stroke-linejoin:miter;stroke-opacity:1" />
      <path
         sodipodi:nodetypes="ccc"
         inkscape:connector-curvature="0"
         id="path26514"
         d="m 75.583588,173.80102 c -1.00824,3.45402 -1.254119,5.42997 -0.506519,8.78753 0.05276,-2.6604 0.185425,-5.50583 0.506519,-8.78753 z"
         style="fill:#a0892c;fill-rule:evenodd;stroke:none;stroke-width:0.28222221px;stroke-linecap:butt;stroke-linejoin:miter;stroke-opacity:1" />
      <path
         sodipodi:nodetypes="ccc"
         inkscape:connector-curvature="0"
         id="path26514-1"
         d="m 76.00181,168.08176 c -2.687651,5.0749 -3.583744,7.97812 -2.847358,12.91129 0.667044,-3.90886 1.528267,-8.08957 2.847358,-12.91129 z"
         style="fill:#a0892c;fill-rule:evenodd;stroke:none;stroke-width:0.28222221px;stroke-linecap:butt;stroke-linejoin:miter;stroke-opacity:1" />
      <path
         sodipodi:nodetypes="ccc"
         inkscape:connector-curvature="0"
         id="path26514-8"
         d="m 76.545336,177.45841 c -0.467946,3.45402 -0.404738,5.42997 0.868067,8.78753 -0.363392,-2.6604 -0.675822,-5.50583 -0.868067,-8.78753 z"
         style="fill:#a0892c;fill-rule:evenodd;stroke:none;stroke-width:0.28222221px;stroke-linecap:butt;stroke-linejoin:miter;stroke-opacity:1" />
      <path
         sodipodi:nodetypes="ccc"
         inkscape:connector-curvature="0"
         id="path26514-8-7"
         d="m 77.492323,170.04546 c -0.931057,2.50851 -1.13278,3.94355 -0.310151,6.382 -0.0067,-1.93213 0.06239,-3.99864 0.310151,-6.382 z"
         style="fill:#a0892c;fill-rule:evenodd;stroke:none;stroke-width:0.28222221px;stroke-linecap:butt;stroke-linejoin:miter;stroke-opacity:1" />
      <path
         inkscape:transform-center-y="-0.52988877"
         inkscape:transform-center-x="0.051683831"
         sodipodi:nodetypes="ccc"
         inkscape:connector-curvature="0"
         id="path26514-8-7-3"
         d="m 87.779293,174.11641 c 0.562058,2.61602 0.556102,4.06516 -0.607397,6.36059 0.283447,-1.91123 0.511138,-3.96632 0.607397,-6.36059 z"
         style="fill:#d3bc5f;fill-rule:evenodd;stroke:none;stroke-width:0.28222221px;stroke-linecap:butt;stroke-linejoin:miter;stroke-opacity:1" />
      <path
         inkscape:transform-center-y="0.3442468"
         inkscape:transform-center-x="0.88862105"
         sodipodi:nodetypes="ccc"
         inkscape:connector-curvature="0"
         id="path26514-8-7-3-5"
         d="m 85.002785,167.17311 c 1.33492,4.22266 1.762156,6.61827 1.303255,10.6183 -0.292277,-3.20855 -0.682416,-6.6449 -1.303255,-10.6183 z"
         style="fill:#d3bc5f;fill-rule:evenodd;stroke:none;stroke-width:0.28222221px;stroke-linecap:butt;stroke-linejoin:miter;stroke-opacity:1" />
      <path
         inkscape:transform-center-y="0.063958449"
         inkscape:transform-center-x="1.0064731"
         sodipodi:nodetypes="ccc"
         inkscape:connector-curvature="0"
         id="path26514-8-7-3-5-6"
         d="m 84.890967,176.78048 c 0.181213,3.72741 -0.03453,5.76915 -1.526032,8.91944 0.559103,-2.67278 1.083486,-5.55235 1.526032,-8.91944 z"
         style="fill:#d3bc5f;fill-rule:evenodd;stroke:none;stroke-width:0.28222221px;stroke-linecap:butt;stroke-linejoin:miter;stroke-opacity:1" />
      <path
         inkscape:transform-center-y="0.14248845"
         inkscape:transform-center-x="0.89225513"
         sodipodi:nodetypes="ccc"
         inkscape:connector-curvature="0"
         id="path26514-8-7-3-5-6-1"
         d="m 83.74208,169.37467 c 0.464556,3.70279 0.404932,5.75503 -0.842321,9.00976 0.353928,-2.7076 0.657488,-5.61874 0.842321,-9.00976 z"
         style="fill:#d3bc5f;fill-rule:evenodd;stroke:none;stroke-width:0.28222221px;stroke-linecap:butt;stroke-linejoin:miter;stroke-opacity:1" />
      <path
         sodipodi:nodetypes="ccc"
         inkscape:connector-curvature="0"
         id="path26514-8-7-1"
         d="m 79.629726,171.15004 c -0.931057,5.98184 -1.13278,9.40386 -0.310151,15.21863 -0.0067,-4.60739 0.06239,-9.53523 0.310151,-15.21863 z"
         style="fill:#b59b32;fill-rule:evenodd;stroke:none;stroke-width:0.28222221px;stroke-linecap:butt;stroke-linejoin:miter;stroke-opacity:1;fill-opacity:1" />
      <path
         sodipodi:nodetypes="ccc"
         inkscape:connector-curvature="0"
         id="path26514-8-7-1-9"
         d="m 81.208651,168.20449 c 0.622317,6.92736 0.647419,10.89028 -0.475327,17.62416 0.244501,-5.33566 0.429751,-11.04242 0.475327,-17.62416 z"
         style="fill:#b59b32;fill-opacity:1;fill-rule:evenodd;stroke:none;stroke-width:0.28222221px;stroke-linecap:butt;stroke-linejoin:miter;stroke-opacity:1" />
      <path
         sodipodi:nodetypes="cccccccccccccc"
         inkscape:connector-curvature="0"
         id="path26651"
         d="m 75.583589,185.04318 c 0.537179,0.59805 1.067323,1.89595 2.244235,1.77901 0.23158,0.043 0.167527,-0.38448 0.151482,-0.81166 0.259475,0.6438 0.402548,0.89815 0.402548,0.89815 0.796624,0.19002 1.286401,-0.37365 1.505529,-1.06321 0.06124,0.42899 -0.187626,1.33443 0.409074,1.06321 0.230613,-0.33024 0.7557,-0.76948 0.833651,-1.21421 0.215951,0.42759 -0.38362,0.96168 -0.244543,1.3124 1.00739,-0.1854 1.21188,-0.504 1.436292,-1.45547 9.72e-4,0.97462 0.176522,1.24325 -0.405352,1.45547 1.581376,0.0821 1.897517,0.0225 2.749174,-1.37459 -0.192468,0.54002 -0.003,1.08003 -0.589109,1.62005 -2.872056,0.7064 -5.455457,0.35676 -7.952965,-0.6382 -0.27054,-0.24797 -0.444338,-0.97493 -0.540016,-1.57095 z"
         style="fill:#b59b32;fill-opacity:1;fill-rule:evenodd;stroke:none;stroke-width:0.28222221px;stroke-linecap:butt;stroke-linejoin:miter;stroke-opacity:1" />
    </g>
  </g>
</svg>
